<svg width="24" height="24" fill="none" xmlns="http://www.w3.org/2000/svg"><path d="M22.844 14.794l-1.997-1.153a9.032 9.032 0 000-3.291l1.997-1.153a.567.567 0 00.258-.656 11.676 11.676 0 00-2.564-4.435.564.564 0 00-.694-.108l-1.997 1.154a8.847 8.847 0 00-2.85-1.646V1.205a.562.562 0 00-.44-.549 11.784 11.784 0 00-5.119 0 .562.562 0 00-.44.549V3.51a9.125 9.125 0 00-2.85 1.645L4.154 4.003a.557.557 0 00-.693.108A11.604 11.604 0 00.897 8.545a.56.56 0 00.258.657l1.997 1.153a9.03 9.03 0 000 3.29l-1.997 1.153a.567.567 0 00-.258.657 11.674 11.674 0 002.565 4.434c.178.192.468.24.693.108l1.997-1.153a8.846 8.846 0 002.85 1.645v2.306c0 .263.183.492.44.549 1.721.384 3.484.365 5.12 0a.562.562 0 00.44-.549V20.49a9.126 9.126 0 002.85-1.645l1.997 1.153c.23.131.516.089.694-.108a11.604 11.604 0 002.564-4.434.579.579 0 00-.263-.661zm-10.847.951a3.755 3.755 0 01-3.75-3.75 3.755 3.755 0 013.75-3.75 3.755 3.755 0 013.75 3.75 3.755 3.755 0 01-3.75 3.75z" fill="#fff"/></svg>