<svg width="36" height="22" fill="none" xmlns="http://www.w3.org/2000/svg"><path d="M35.3 8.938h-2.8v-2.75a.696.696 0 00-.7-.688h-1.4c-.385 0-.7.31-.7.688v2.75h-2.8c-.385 0-.7.309-.7.687V11c0 .378.315.688.7.688h2.8v2.75c0 .378.315.687.7.687h1.4c.385 0 .7-.31.7-.688v-2.75h2.8c.385 0 .7-.309.7-.687V9.625a.696.696 0 00-.7-.688zM17.8 11c3.093 0 5.6-2.462 5.6-5.5S20.893 0 17.8 0c-3.093 0-5.6 2.462-5.6 5.5s2.507 5.5 5.6 5.5zm3.92 1.375h-.73a7.74 7.74 0 01-6.38 0h-.73c-3.246 0-5.88 2.587-5.88 5.775v1.788C8 21.075 8.94 22 10.1 22h15.4c1.16 0 2.1-.924 2.1-2.063V18.15c0-3.188-2.634-5.775-5.88-5.775z" fill="#fff"/></svg>