<svg width="26" height="18" fill="none" xmlns="http://www.w3.org/2000/svg"><g clip-path="url(#clip0)"><path d="M7.8 8.938c2.515 0 4.55-2 4.55-4.47C12.35 2 10.315 0 7.8 0 5.285 0 3.25 1.999 3.25 4.469S5.285 8.937 7.8 8.937zm3.12 1.276h-.337a6.495 6.495 0 01-2.783.639c-1 0-1.934-.24-2.783-.639H4.68c-2.584 0-4.68 2.06-4.68 4.597v1.149c0 1.057.873 1.915 1.95 1.915h11.7c1.077 0 1.95-.858 1.95-1.915v-1.15c0-2.537-2.096-4.596-4.68-4.596zm8.58-1.277c2.153 0 3.9-1.715 3.9-3.83s-1.747-3.83-3.9-3.83c-2.153 0-3.9 1.715-3.9 3.83s1.747 3.83 3.9 3.83zm1.95 1.277h-.154a5.563 5.563 0 01-1.796.32c-.634 0-1.23-.128-1.796-.32h-.154c-.829 0-1.593.236-2.263.615.991 1.05 1.613 2.442 1.613 3.982v1.532c0 .088-.02.171-.024.255h7.174c1.077 0 1.95-.858 1.95-1.915 0-2.47-2.035-4.469-4.55-4.469z" fill="#fff"/></g><defs><clipPath id="clip0"><path fill="#fff" d="M0 0h26v17.875H0z"/></clipPath></defs></svg>